<svg width="175" height="49" viewBox="0 0 175 49" fill="none" xmlns="http://www.w3.org/2000/svg">
<g clip-path="url(#clip0_94_1674)">
<path d="M12.8488 26.0638V5.21277H5.1395C3.68331 5.21277 2.48409 4.69149 1.49902 3.69238C0.51395 2.69326 0 1.43351 0 0H30.837C30.837 1.47695 30.3231 2.69326 29.2952 3.69238C28.3101 4.69149 27.1109 5.21277 25.6975 5.21277H17.9883V26.0638H12.8488ZM41.116 26.0638C39.6598 26.0638 38.4606 25.5426 37.4755 24.5434C36.4905 23.5443 35.9765 22.2846 35.9765 20.8511H66.8135C66.8135 22.328 66.2996 23.5443 65.2717 24.5434C64.2438 25.5426 63.0445 26.0638 61.674 26.0638H41.116ZM41.116 15.6383C39.6598 15.6383 38.4606 15.117 37.4755 14.1179C36.4905 13.1188 35.9765 11.859 35.9765 10.4255H66.8135C66.8135 11.9025 66.2996 13.1188 65.2717 14.1179C64.2438 15.117 63.0445 15.6383 61.674 15.6383H41.116ZM41.116 5.21277C39.6598 5.21277 38.4606 4.69149 37.4755 3.69238C36.4905 2.69326 35.9765 1.43351 35.9765 0H66.8135C66.8135 1.47695 66.2996 2.69326 65.2717 3.69238C64.2438 4.69149 63.0445 5.21277 61.674 5.21277H41.116ZM71.953 26.0638C71.953 24.6303 72.467 23.414 73.452 22.4149C74.4799 21.3723 75.6792 20.8511 77.0925 20.8511H97.6505V15.6383H71.953V0H102.79C102.79 1.47695 102.276 2.69326 101.248 3.69238C100.22 4.69149 99.021 5.21277 97.6505 5.21277H77.0925V10.4255H102.79V26.0638H71.953ZM107.93 26.0638V0H113.069V20.8511H138.767C138.767 22.328 138.253 23.5443 137.225 24.5434C136.197 25.5426 134.998 26.0638 133.627 26.0638H107.93ZM143.906 26.0638V10.4255H174.743V26.0638H169.604V15.6383H149.046V26.0638H143.906ZM149.046 5.21277C147.589 5.21277 146.39 4.69149 145.405 3.69238C144.42 2.69326 143.906 1.43351 143.906 0H174.743C174.743 1.47695 174.229 2.69326 173.201 3.69238C172.173 4.69149 170.974 5.21277 169.604 5.21277H149.046Z" fill="white"/>
<path opacity="0.8" d="M64.2009 46.9583C63.7298 46.9583 63.3015 46.8714 62.916 46.6542C62.5306 46.4371 62.2308 46.133 62.0166 45.6986C61.8025 45.2642 61.674 44.7863 61.674 44.1782C61.674 43.57 61.8025 43.0922 62.0166 42.6578C62.2308 42.2234 62.5306 41.9193 62.916 41.7021C63.3015 41.4849 63.7298 41.398 64.2009 41.398C64.7148 41.398 65.186 41.5284 65.5714 41.7456C65.9997 41.9628 66.2995 42.3103 66.5565 42.7012C66.7706 43.1356 66.8991 43.6135 66.8991 44.1782C66.8991 44.7429 66.7706 45.2207 66.5565 45.6551C66.3423 46.0895 65.9997 46.3936 65.5714 46.6542C65.186 46.828 64.7148 46.9583 64.2009 46.9583ZM61.417 46.9149V39.1826H62.1451V43.0488L62.0594 44.1347L62.1451 45.2207V46.8714H61.417V46.9149ZM64.1581 46.3067C64.5435 46.3067 64.8862 46.2199 65.186 46.0461C65.4858 45.8723 65.7427 45.6117 65.9141 45.3076C66.0854 44.9601 66.171 44.6126 66.171 44.1782C66.171 43.7438 66.0854 43.3528 65.9141 43.0488C65.7427 42.7447 65.4858 42.484 65.186 42.3103C64.8862 42.1365 64.5435 42.0496 64.1581 42.0496C63.7726 42.0496 63.43 42.1365 63.1302 42.3103C62.8304 42.484 62.5734 42.7447 62.4021 43.0488C62.2307 43.3528 62.1451 43.7438 62.1451 44.1782C62.1451 44.6126 62.2307 44.9601 62.4021 45.3076C62.5734 45.6117 62.8304 45.8723 63.1302 46.0461C63.43 46.2199 63.7726 46.3067 64.1581 46.3067ZM68.2697 49C68.0127 49 67.7557 48.9566 67.5416 48.8697C67.3274 48.7828 67.1133 48.6525 66.942 48.4787L67.2846 47.914C67.4131 48.0443 67.5844 48.1312 67.7129 48.2181C67.8842 48.305 68.0555 48.3484 68.2697 48.3484C68.5266 48.3484 68.698 48.2615 68.8693 48.1312C69.0406 48.0009 69.2119 47.7837 69.3832 47.4362L69.7259 46.6542L69.8115 46.5239L72.0386 41.4415H72.7667L70.0685 47.5665C69.8972 47.914 69.7687 48.2181 69.5545 48.3918C69.3832 48.609 69.1691 48.7394 68.9549 48.8262C68.7408 48.9566 68.5266 49 68.2697 49ZM69.683 47.0886L67.1989 41.4415H67.9699L70.1541 46.4805L69.683 47.0886Z" fill="white"/>
<path d="M81.6324 40.7465L84.1165 33.7962H84.1593L86.6006 40.7465H81.6324ZM83.1314 32.0151L77.3923 46.915H79.4053L81.0328 42.4407H87.243L88.8277 46.915H90.9692L85.2301 32.0151H83.1314ZM100.948 46.915V36.1419H99.1924V42.2235C99.1924 42.7013 99.1067 43.1791 98.9782 43.5701C98.8498 43.9611 98.6784 44.3086 98.4215 44.6127C98.1645 44.9167 97.8219 45.1339 97.4364 45.3077C97.0509 45.4815 96.5798 45.5683 96.0659 45.5683C95.3806 45.5683 94.8666 45.3946 94.4812 45.0036C94.0957 44.6127 93.9244 44.0914 93.9244 43.4398V36.1419H92.1684V43.2226C92.1684 43.7873 92.2112 44.352 92.3397 44.8299C92.4682 45.3077 92.6824 45.6986 92.9393 46.0462C93.2391 46.3937 93.6246 46.6543 94.0529 46.8715C94.524 47.0453 95.0808 47.1322 95.8089 47.1322C96.5798 47.1322 97.2651 46.9584 97.8647 46.6543C98.4215 46.3502 98.8926 45.829 99.278 45.1774H99.3209V46.8715H100.948V46.915ZM106.002 36.1419V32.9274H104.246V36.1419H102.447V37.7057H104.246V44.5692C104.246 45.0905 104.289 45.4815 104.375 45.7855C104.46 46.0896 104.632 46.3068 104.803 46.4806C105.017 46.6543 105.274 46.7846 105.574 46.8281C105.917 46.8715 106.302 46.915 106.73 46.915H108.058V45.3511H107.244C106.987 45.3511 106.73 45.3511 106.559 45.3511C106.388 45.3077 106.259 45.2643 106.174 45.2208C106.088 45.1339 106.002 45.0471 105.959 44.9167C105.917 44.7864 105.917 44.6127 105.917 44.3955V37.7057H108.015V36.1419H106.002ZM111.356 41.5284C111.356 40.8768 111.442 40.3121 111.613 39.7908C111.784 39.2696 112.041 38.8352 112.341 38.4877C112.641 38.1401 112.983 37.8795 113.369 37.7057C113.797 37.532 114.225 37.4451 114.654 37.4451C115.082 37.4451 115.51 37.532 115.939 37.7057C116.367 37.8795 116.71 38.1401 117.009 38.4877C117.309 38.8352 117.523 39.2696 117.695 39.7908C117.866 40.3121 117.952 40.8768 117.952 41.5284C117.952 42.18 117.866 42.7447 117.695 43.266C117.523 43.7873 117.309 44.1783 117.009 44.5258C116.71 44.8733 116.367 45.1339 115.939 45.3077C115.553 45.4815 115.125 45.5683 114.654 45.5683C114.183 45.5683 113.754 45.4815 113.369 45.3077C112.983 45.1339 112.641 44.8733 112.341 44.5258C112.041 44.1783 111.784 43.7439 111.613 43.266C111.442 42.7882 111.356 42.18 111.356 41.5284ZM109.514 41.5284C109.514 42.3104 109.643 43.0488 109.857 43.7439C110.071 44.4389 110.414 45.0036 110.842 45.5249C111.27 46.0462 111.827 46.4371 112.469 46.6978C113.112 46.9584 113.84 47.1322 114.697 47.1322C115.553 47.1322 116.281 47.0018 116.924 46.6978C117.566 46.3937 118.123 46.0027 118.551 45.5249C118.979 45.0036 119.322 44.3955 119.536 43.7439C119.75 43.0488 119.879 42.3104 119.879 41.5284C119.879 40.7465 119.75 40.008 119.536 39.313C119.322 38.618 118.979 38.0098 118.551 37.532C118.123 37.0107 117.566 36.6197 116.924 36.3157C116.281 36.0116 115.553 35.8813 114.697 35.8813C113.84 35.8813 113.112 36.0116 112.469 36.3157C111.827 36.6197 111.27 37.0107 110.842 37.532C110.414 38.0533 110.071 38.618 109.857 39.313C109.6 40.008 109.514 40.7465 109.514 41.5284Z" fill="#464646"/>
<path d="M124.29 36.1419V32.9274H122.534V36.1419H120.735V37.7057H122.534V44.5692C122.534 45.0905 122.577 45.4815 122.663 45.7855C122.748 46.0896 122.92 46.3068 123.091 46.4806C123.305 46.6543 123.562 46.7846 123.862 46.8281C124.205 46.8715 124.59 46.915 125.018 46.915H126.346V45.3511H125.532C125.275 45.3511 125.018 45.3511 124.847 45.3511C124.676 45.3077 124.547 45.2643 124.461 45.2208C124.376 45.1339 124.29 45.0471 124.247 44.9167C124.205 44.7864 124.205 44.6127 124.205 44.3955V37.7057H126.303V36.1419H124.29ZM128.316 36.1419V46.915H130.072V42.1366C130.072 41.4416 130.158 40.8334 130.286 40.3121C130.415 39.7908 130.629 39.313 130.929 38.9221C131.229 38.5311 131.614 38.2705 132.128 38.0533C132.642 37.8361 133.199 37.7492 133.927 37.7492V35.8813C132.985 35.8378 132.214 36.055 131.571 36.446C130.972 36.8804 130.415 37.4885 130.029 38.4008H129.986V36.1419H128.316ZM144.634 46.8715C144.334 47.0453 143.906 47.1322 143.392 47.1322C142.921 47.1322 142.578 47.0018 142.321 46.7412C142.064 46.4806 141.936 46.0462 141.936 45.4814C141.465 46.0462 140.908 46.4806 140.265 46.7412C139.623 47.0018 138.938 47.1322 138.21 47.1322C137.739 47.1322 137.267 47.0887 136.839 46.9584C136.411 46.8281 136.025 46.6543 135.726 46.4371C135.426 46.2199 135.169 45.9158 134.955 45.5249C134.783 45.1339 134.698 44.6561 134.698 44.1348C134.698 43.5267 134.783 43.0054 134.997 42.6144C135.212 42.2235 135.469 41.9194 135.811 41.6588C136.154 41.3981 136.539 41.2244 136.968 41.094C137.396 40.9637 137.867 40.8768 138.295 40.79C138.766 40.7031 139.238 40.6162 139.666 40.5728C140.094 40.5293 140.48 40.4424 140.822 40.3556C141.165 40.2687 141.422 40.1384 141.593 39.9646C141.764 39.7908 141.893 39.5302 141.893 39.1827C141.893 38.7917 141.807 38.4877 141.679 38.227C141.55 38.0098 141.336 37.7926 141.122 37.7057C140.908 37.5754 140.651 37.4885 140.351 37.4451C140.094 37.4017 139.794 37.4017 139.537 37.4017C138.809 37.4017 138.167 37.532 137.696 37.8361C137.182 38.0967 136.925 38.6614 136.882 39.4433H135.126C135.169 38.7917 135.297 38.227 135.554 37.7492C135.811 37.2713 136.111 36.9238 136.539 36.6632C136.968 36.3591 137.396 36.1419 137.953 36.055C138.467 35.9247 139.066 35.8813 139.666 35.8813C140.137 35.8813 140.608 35.9247 141.079 35.9682C141.55 36.055 141.979 36.1854 142.364 36.4026C142.75 36.6197 143.049 36.9238 143.306 37.3148C143.52 37.7057 143.649 38.227 143.649 38.8352V44.3955C143.649 44.8299 143.649 45.1339 143.692 45.3077C143.735 45.4815 143.906 45.6118 144.206 45.6118C144.377 45.6118 144.548 45.5683 144.72 45.5249V46.8715H144.634ZM141.807 41.3547C141.593 41.5284 141.293 41.6588 140.951 41.7456C140.608 41.8325 140.223 41.876 139.837 41.9194C139.452 41.9628 139.066 42.0063 138.681 42.0932C138.295 42.1366 137.91 42.2669 137.61 42.3972C137.31 42.5275 137.053 42.7447 136.839 43.0054C136.668 43.266 136.539 43.6135 136.539 44.0479C136.539 44.352 136.582 44.5692 136.711 44.7864C136.839 44.9602 136.968 45.1339 137.182 45.2642C137.353 45.3946 137.61 45.4815 137.824 45.5249C138.081 45.5683 138.338 45.6118 138.595 45.6118C139.152 45.6118 139.666 45.5249 140.094 45.3946C140.522 45.2208 140.822 45.0471 141.122 44.7864C141.379 44.5258 141.593 44.2651 141.679 44.0045C141.807 43.7004 141.85 43.4398 141.85 43.1791V41.3547H141.807ZM147.546 41.6153C147.546 41.094 147.589 40.5728 147.718 40.0515C147.846 39.5302 148.018 39.0958 148.232 38.7049C148.489 38.3139 148.788 38.0098 149.217 37.7492C149.645 37.532 150.116 37.4017 150.716 37.4017C151.315 37.4017 151.829 37.532 152.258 37.7492C152.686 37.9664 153.029 38.2705 153.286 38.6614C153.542 39.0524 153.757 39.4868 153.885 39.9646C154.014 40.4424 154.056 40.9637 154.056 41.485C154.056 42.0063 154.014 42.4841 153.885 42.9619C153.757 43.4398 153.585 43.8742 153.328 44.2651C153.071 44.6561 152.729 44.9602 152.3 45.1774C151.872 45.3946 151.401 45.5249 150.801 45.5249C150.245 45.5249 149.731 45.3946 149.302 45.1774C148.874 44.9602 148.531 44.6561 148.275 44.2651C148.018 43.8742 147.803 43.4832 147.675 43.0054C147.589 42.6144 147.546 42.1366 147.546 41.6153ZM155.77 46.915V32.0151H154.014V37.5754H153.971C153.799 37.2713 153.542 37.0107 153.243 36.7935C152.986 36.5763 152.686 36.4025 152.343 36.2722C152.043 36.1419 151.701 36.055 151.401 35.9682C151.101 35.9247 150.801 35.8813 150.502 35.8813C149.688 35.8813 148.96 36.055 148.36 36.3591C147.761 36.6632 147.247 37.0541 146.818 37.5754C146.433 38.0967 146.133 38.6614 145.919 39.3564C145.748 40.0515 145.619 40.7465 145.619 41.5284C145.619 42.3104 145.705 43.0054 145.919 43.7004C146.133 44.3955 146.433 44.9602 146.818 45.4814C147.247 46.0027 147.718 46.3937 148.36 46.6978C148.96 47.0018 149.688 47.1756 150.502 47.1756C151.23 47.1756 151.915 47.0453 152.557 46.7846C153.157 46.524 153.628 46.0896 153.928 45.4814H153.971V46.9584H155.77V46.915ZM165.834 40.4859H159.71C159.753 40.0515 159.838 39.6605 159.967 39.313C160.138 38.9221 160.31 38.618 160.566 38.3139C160.823 38.0098 161.123 37.8361 161.509 37.6623C161.894 37.4885 162.28 37.4017 162.751 37.4017C163.179 37.4017 163.607 37.4885 163.95 37.6623C164.335 37.8361 164.635 38.0098 164.892 38.3139C165.149 38.5745 165.363 38.8786 165.535 39.2696C165.706 39.6605 165.792 40.0949 165.834 40.4859ZM167.505 43.4832H165.792C165.62 44.1783 165.321 44.6995 164.849 45.0471C164.378 45.3946 163.779 45.5683 163.051 45.5683C162.494 45.5683 161.98 45.4814 161.552 45.2642C161.123 45.0905 160.781 44.8299 160.524 44.4823C160.267 44.1348 160.053 43.7873 159.924 43.3529C159.796 42.9185 159.753 42.4841 159.753 42.0063H167.719C167.762 41.3547 167.676 40.6596 167.548 39.9212C167.419 39.1827 167.162 38.5311 166.777 37.9229C166.391 37.3148 165.92 36.7935 165.278 36.4026C164.678 36.0116 163.864 35.7944 162.922 35.7944C162.194 35.7944 161.509 35.9247 160.909 36.2288C160.31 36.4894 159.796 36.8804 159.324 37.4017C158.896 37.9229 158.554 38.4877 158.297 39.1827C158.04 39.8777 157.911 40.6162 157.911 41.4416C157.954 42.2669 158.04 43.0054 158.254 43.7004C158.468 44.3955 158.81 45.0036 159.239 45.4814C159.667 45.9593 160.181 46.3502 160.781 46.6543C161.423 46.915 162.151 47.0887 163.008 47.0887C164.207 47.0887 165.235 46.7846 166.006 46.1765C166.777 45.6118 167.291 44.6995 167.505 43.4832ZM169.432 36.1419V46.915H171.188V42.1366C171.188 41.4416 171.274 40.8334 171.402 40.3121C171.531 39.7908 171.745 39.313 172.045 38.9221C172.345 38.5311 172.73 38.2705 173.244 38.0533C173.758 37.8361 174.315 37.7492 175.043 37.7492V35.8813C174.101 35.8378 173.33 36.055 172.687 36.446C172.088 36.8804 171.531 37.4885 171.145 38.4008H171.102V36.1419H169.432Z" fill="url(#paint0_linear_94_1674)"/>
</g>
<defs>
<linearGradient id="paint0_linear_94_1674" x1="115.883" y1="39.5858" x2="143.159" y2="39.5858" gradientUnits="userSpaceOnUse">
<stop stop-color="#B91718"/>
<stop offset="1" stop-color="#7E0505"/>
</linearGradient>
<clipPath id="clip0_94_1674">
<rect width="175" height="49" fill="white"/>
</clipPath>
</defs>
</svg>
